<?xml version="1.0" standalone="no"?>
<!DOCTYPE svg PUBLIC "-//W3C//DTD SVG 20010904//EN"
 "http://www.w3.org/TR/2001/REC-SVG-20010904/DTD/svg10.dtd">
<svg version="1.0" xmlns="http://www.w3.org/2000/svg"
 width="64.000000pt" height="64.000000pt" viewBox="0 0 64.000000 64.000000"
 preserveAspectRatio="xMidYMid meet">

<g transform="translate(0.000000,64.000000) scale(0.100000,-0.100000)"
fill="#000000" stroke="none">
<path d="M268 629 c-169 -26 -284 -188 -257 -360 27 -170 187 -285 359 -258
172 27 286 187 259 360 -27 172 -186 286 -361 258z m27 -193 c60 -25 39 -55
-33 -48 -37 3 -51 0 -64 -14 -44 -50 -11 -134 52 -134 14 0 37 10 50 23 l25
22 -38 3 c-32 3 -37 7 -37 28 0 23 3 24 60 24 l60 0 0 -32 c0 -83 -81 -136
-163 -107 -104 37 -115 179 -17 231 42 22 60 22 105 4z m192 -76 c3 -11 12
-20 19 -20 8 0 14 -9 14 -20 0 -11 -6 -20 -14 -20 -7 0 -16 -9 -19 -20 -7 -27
-47 -27 -47 0 0 11 -7 20 -15 20 -8 0 -15 9 -15 20 0 11 7 20 15 20 8 0 15 9
15 20 0 14 7 20 21 20 12 0 23 -8 26 -20z"/>
</g>
</svg>
