<?xml version="1.0" standalone="no"?>
<!DOCTYPE svg PUBLIC "-//W3C//DTD SVG 20010904//EN"
 "http://www.w3.org/TR/2001/REC-SVG-20010904/DTD/svg10.dtd">
<svg version="1.0" xmlns="http://www.w3.org/2000/svg"
 width="626.000000pt" height="626.000000pt" viewBox="0 0 626.000000 626.000000"
 preserveAspectRatio="xMidYMid meet">

<g transform="translate(0.000000,626.000000) scale(0.100000,-0.100000)"
fill="#000000" stroke="none">
<path d="M3172 5105 c200 -29 346 -91 443 -189 100 -100 134 -204 114 -342
-10 -67 -10 -76 10 -107 21 -34 99 -111 182 -178 35 -30 42 -39 32 -50 -19
-19 -16 -44 12 -99 l25 -49 -37 -48 c-50 -66 -88 -98 -153 -130 -49 -25 -66
-28 -150 -27 -52 1 -129 9 -170 18 -215 48 -327 26 -405 -81 -36 -49 -50 -51
-155 -22 -161 44 -398 180 -554 317 l-35 31 24 60 c27 65 60 182 69 246 6 34
1 28 -34 -44 -96 -200 -243 -368 -540 -618 -261 -218 -369 -339 -449 -499 -47
-94 -86 -222 -95 -309 l-7 -60 24 60 c104 260 262 453 577 704 85 69 198 168
251 222 l96 98 34 -35 c83 -85 323 -229 474 -283 33 -12 101 -30 150 -40 50
-11 89 -23 88 -29 -1 -5 -5 -41 -8 -78 -6 -72 -6 -72 35 21 l22 50 14 -27 c30
-58 106 -67 148 -17 30 35 32 58 11 98 -15 31 -65 57 -90 47 -43 -16 5 47 59
79 65 38 124 41 312 15 250 -36 342 -16 464 97 93 86 160 204 160 281 0 32 -9
44 -82 111 -44 42 -112 106 -150 142 l-69 66 7 94 c5 75 3 108 -10 154 -35
122 -122 215 -263 282 -112 54 -200 73 -348 78 l-130 4 97 -14z"/>
<path d="M2767 5046 c-81 -33 -160 -98 -207 -168 -56 -84 -73 -150 -68 -258 6
-129 41 -195 173 -325 56 -55 116 -119 134 -143 53 -68 101 -84 182 -62 46 13
114 72 139 119 10 20 21 71 25 112 11 130 25 181 81 300 46 97 55 125 55 173
1 32 -2 60 -5 63 -3 4 -6 -1 -6 -11 0 -24 -32 -83 -95 -175 -62 -92 -92 -177
-104 -298 -9 -93 -30 -137 -81 -170 -56 -39 -114 -24 -163 41 -15 19 -61 62
-102 96 -114 95 -175 204 -175 316 0 58 31 154 70 214 40 62 132 148 191 177
58 30 29 29 -44 -1z"/>
<path d="M4302 3970 c-39 -16 -101 -72 -159 -142 l-55 -68 -57 0 c-51 0 -100
-14 -226 -63 -22 -9 -56 -16 -75 -17 -19 0 -52 -5 -72 -10 -33 -9 -39 -16 -49
-53 -6 -23 -9 -77 -7 -119 6 -96 30 -136 127 -208 75 -57 101 -87 119 -139 17
-49 16 -53 -23 -45 -41 7 -65 -8 -65 -42 0 -23 36 -57 52 -48 14 9 9 -21 -9
-46 -16 -24 -15 -23 22 5 22 16 47 38 56 48 14 18 20 18 68 8 126 -27 260 -4
414 73 l107 53 33 -41 c17 -22 76 -92 130 -156 55 -63 126 -155 159 -205 121
-179 -2 83 -162 350 -113 187 -165 300 -215 470 -21 71 -28 121 -33 233 -6
126 -9 145 -26 158 -22 16 -23 16 -54 4z m-4 -232 c0 -114 5 -149 30 -248 16
-63 44 -146 61 -185 37 -80 39 -75 -59 -125 -106 -54 -261 -85 -354 -72 -48 7
-49 8 -60 53 -16 62 -42 95 -124 159 -39 30 -82 72 -96 94 -46 70 -58 196 -21
226 10 8 35 10 83 5 65 -6 73 -5 133 26 53 27 79 33 146 37 l83 4 37 47 c55
69 102 111 123 111 16 0 18 -11 18 -132z"/>
<path d="M1666 2703 c11 -8 28 -20 38 -27 16 -10 23 -41 42 -182 31 -228 34
-207 -32 -228 -31 -10 -54 -19 -52 -20 7 -6 237 14 288 24 115 24 185 91 197
188 11 96 -46 187 -134 212 -21 6 -112 19 -202 29 -132 14 -160 15 -145 4z
m270 -149 c11 -44 -5 -91 -42 -124 -20 -17 -38 -29 -40 -27 -5 5 15 194 22
217 4 12 11 9 30 -13 13 -15 27 -39 30 -53z"/>
<path d="M3005 2703 c-74 -27 -110 -57 -139 -115 -51 -101 -29 -217 54 -292
87 -79 207 -69 315 25 l35 31 0 -33 c0 -18 2 -30 5 -28 5 5 34 179 30 179 -1
0 -19 -7 -38 -15 -92 -38 -172 -3 -172 75 0 32 6 47 24 61 31 25 87 24 130 -2
l33 -20 -6 25 c-3 14 -9 47 -13 73 -5 39 -8 43 -14 25 l-9 -23 -41 22 c-58 29
-132 34 -194 12z"/>
<path d="M2246 2573 c-49 -3 -56 -6 -42 -16 16 -11 16 -26 8 -152 -8 -108 -13
-141 -26 -150 -12 -9 1 -11 62 -8 105 6 103 5 81 51 -13 26 -18 49 -13 66 16
64 107 88 162 42 l29 -25 17 72 c9 40 19 83 23 97 5 23 5 24 -12 9 -16 -16
-20 -16 -51 3 -43 25 -86 19 -143 -22 l-40 -30 9 26 c12 30 13 45 3 42 -5 -1
-34 -3 -67 -5z"/>
<path d="M3430 2573 c-35 -13 -72 -60 -86 -111 -21 -72 -12 -132 27 -177 52
-59 123 -58 190 2 41 37 49 30 29 -22 -9 -23 -8 -26 7 -21 10 3 40 8 67 12 40
5 46 9 34 18 -11 8 -16 43 -21 142 -7 129 -7 131 16 142 21 10 20 11 -9 11
-17 1 -46 4 -64 7 l-32 7 6 -44 7 -44 -22 29 c-34 44 -102 66 -149 49z m138
-133 c20 -30 21 -35 7 -43 -25 -14 -57 -4 -78 25 -18 23 -19 31 -8 54 11 24
13 25 34 12 12 -8 32 -30 45 -48z"/>
<path d="M3806 2573 c-49 -3 -56 -6 -42 -16 16 -11 16 -26 8 -152 -8 -108 -13
-141 -26 -150 -12 -9 1 -11 62 -8 105 6 103 5 81 51 -13 26 -18 49 -13 66 16
64 107 88 162 42 l29 -25 17 72 c9 40 19 83 23 97 5 23 5 24 -12 9 -16 -16
-20 -16 -51 3 -43 25 -86 19 -143 -22 l-40 -30 9 26 c12 30 13 45 3 42 -5 -1
-34 -3 -67 -5z"/>
<path d="M4239 2571 c-102 -33 -155 -162 -103 -251 43 -74 182 -99 288 -52 43
20 50 20 60 7 8 -12 10 -3 8 40 l-4 55 -29 -21 c-50 -35 -140 -38 -185 -4 -17
13 -16 14 16 9 75 -12 161 33 176 91 10 40 -17 89 -61 109 -42 20 -129 29
-166 17z m56 -61 c10 -31 -20 -70 -53 -70 -42 0 -56 13 -43 38 26 48 85 67 96
32z"/>
</g>
</svg>
